<svg xmlns="http://www.w3.org/2000/svg" xmlns:xlink="http://www.w3.org/1999/xlink" width="211.847" height="81.527" viewBox="0 0 211.847 81.527">
  <defs>
    <clipPath id="clip-path">
      <rect id="Rectangle_89" data-name="Rectangle 89" width="211.847" height="81.527"/>
    </clipPath>
  </defs>
  <g id="Group_1108" data-name="Group 1108" transform="translate(-74.491 -2032)">
    <g id="Group_1148" data-name="Group 1148">
      <g id="Group_1147" data-name="Group 1147">
        <g id="Group_1146" data-name="Group 1146">
          <g id="Group_1145" data-name="Group 1145">
            <path id="Path_28" data-name="Path 28" d="M119.222,4.54,96.514,27.24l-.394.394,23.094,23.094,23.094-23.094Zm21.526,23.094L119.214,49.168,97.688,27.634,119.222,6.1Z" transform="translate(60.738 2031.351)" fill="#fff"/>
          </g>
        </g>
      </g>
    </g>
    <path id="Path_29" data-name="Path 29" d="M122.44,17.974V26.62h1.114V16.86Z" transform="translate(56.971 2029.588)" fill="#fff"/>
    <g id="Group_40" data-name="Group 40" transform="translate(74.491 2032)" clip-path="url(#clip-path)">
      <path id="Path_30" data-name="Path 30" d="M125.158,19.81H123.8v1.114h1.354a3.814,3.814,0,0,1,4.1,4.165v.043a3.815,3.815,0,0,1-4.1,4.156H112.93V25.9l-1.114,1.114v2.271h-2.262L108.44,30.4h3.376v4.876l1.114,1.114V30.4h7.515V43.915l1.114-1.114V30.41h3.6c3.325,0,5.219-1.971,5.219-5.279V25.08c0-3.3-1.894-5.27-5.219-5.27" transform="translate(-15.516 -2.834)" fill="#fff"/>
    </g>
  </g>
</svg>
